<svg width="303" height="56" viewBox="0 0 303 56" fill="none" xmlns="http://www.w3.org/2000/svg">
<g clip-path="url(#clip0_2205_189)">
<path d="M32.4547 13.4283C32.6997 13.5712 32.9418 13.7231 33.3213 13.9553C32.6788 14.3305 32.1558 14.6342 31.6299 14.9379C30.5062 15.584 29.3796 16.2182 28.2649 16.8792C27.9272 17.0786 27.6582 17.0578 27.3235 16.8643C24.0123 14.9438 20.6831 13.0472 17.3779 11.1148C16.8788 10.823 16.5083 10.7962 16.0032 11.1029C14.3715 12.0884 2.21445 19.0557 0.6216 19.9698C0.134481 20.2467 0.0119538 20.1841 0.0119538 19.6422C0 17.9332 0.0119538 16.2271 0 14.524C0 14.0982 0.167354 13.8302 0.537923 13.6188C5.68704 10.6682 10.8362 7.71454 15.9733 4.73709C16.4993 4.43041 16.8878 4.45423 17.3988 4.75793" fill="#932A23"/>
<path d="M31.8867 51.364C32.1018 51.4831 32.4874 51.4593 32.7234 51.3521C33.2763 51.099 33.7873 50.7506 34.3163 50.4469C36.6055 49.1309 38.8916 47.8119 41.1808 46.4959V40.1449L32.8639 44.9535C32.4485 45.2007 32.1287 45.1917 31.7283 44.9565C29.7589 43.8042 27.7805 42.6728 25.8022 41.5354C24.3976 40.7285 22.987 39.9365 21.5914 39.1207C21.2717 38.9331 21.0147 38.9301 20.6949 39.1177C19.4397 39.8561 18.1726 40.5737 16.9115 41.3032C16.5439 41.5146 16.1823 41.7409 15.7012 42.0297C15.9671 42.2113 16.1046 42.3215 16.254 42.4078" fill="white"/>
<path d="M7.82617 28.009C7.82617 27.8542 7.87996 27.6994 7.9218 27.491C8.09513 27.5594 8.22961 27.5922 8.34616 27.6607C9.83143 28.5063 11.3047 29.3697 12.799 30.1975C13.2323 30.4386 13.3907 30.7394 13.3877 31.2307C13.3728 35.0358 13.3877 38.8381 13.3698 42.6432C13.3698 43.1494 13.5013 43.4531 13.9704 43.7092C15.641 44.6262 27.8728 51.6888 29.5852 52.6802C29.6748 52.7309 29.7495 52.8113 29.9258 52.9601C29.4895 53.2251 29.1309 53.4544 28.7633 53.6658C27.4992 54.3923 26.2261 55.1009 24.974 55.8423C24.6153 56.0537 24.3374 56.0448 23.9848 55.8393C19.5768 53.2906 15.1628 50.7538 10.7519 48.2141C9.95694 47.7555 9.165 47.294 8.35812 46.8534C8.00249 46.6598 7.84709 46.4097 7.85008 45.9959" fill="white"/>
<path d="M5.57736 44.6052C5.57736 44.7421 5.53552 44.8791 5.49667 45.1232C5.27254 45.028 5.12013 44.9803 4.98565 44.9029C3.50337 44.0514 2.03006 43.1879 0.541806 42.3483C0.201122 42.1547 0.057676 41.9165 0.0606644 41.5324C0.0726183 39.6507 0.0666413 37.766 0.0666413 35.8842C0.0666413 31.7217 0.0666413 27.5622 0.0546875 23.3997C0.0546875 23.0424 0.177214 22.8221 0.467095 22.6583C2.54109 21.4703 14.74 14.4614 15.9563 13.7617C16.1505 13.6486 16.3627 13.5652 16.6436 13.4282C16.6765 13.7021 16.7154 13.8868 16.7154 14.0743C16.7213 15.7238 16.7094 17.3763 16.7303 19.0258C16.7363 19.4993 16.557 19.7762 16.1475 20.0084C12.8035 21.917 9.4773 23.8493 6.13023 25.7519C5.70288 25.9931 5.57138 26.2789 5.57437 26.7404" fill="#932A23"/>
<path d="M34.9136 12.2225C35.4336 12.5084 35.6428 12.8448 35.6369 13.4522C35.61 17.2366 35.6309 21.0239 35.6129 24.8083C35.6129 25.2817 35.7713 25.5616 36.1867 25.7908C37.6182 26.5828 39.0317 27.4046 40.4543 28.2204C41.0071 28.536 41.1326 28.4705 41.1356 27.8185L41.1446 10.0758C41.1446 9.62918 40.9802 9.35526 40.5857 9.13195C35.3888 6.15449 30.1979 3.17108 25.0129 0.172782C24.6363 -0.0445723 24.3465 -0.0624371 23.9729 0.157895C22.7506 0.881417 21.5104 1.57219 20.2792 2.2838C19.8966 2.50413 19.5261 2.74233 19.0449 3.0371C19.293 3.21574 19.4125 3.31995 19.55 3.40034L34.9136 12.2255V12.2225Z" fill="white"/>
<path d="M86.6184 34.9047L86.3286 35.1816C84.4488 36.977 82.3091 37.8881 79.9721 37.8881C77.6351 37.8881 75.6448 37.0634 74.2074 35.3632C72.746 33.6721 72.0049 31.302 72.0049 28.3275C72.0049 25.353 72.7878 23.0932 74.3329 21.3722C75.8271 19.6959 77.7158 18.8801 80.1036 18.8801C82.076 18.8801 83.9707 19.6542 85.7369 21.1757L86.0297 21.4288L89.9476 17.2246L89.6547 16.9536C86.9591 14.4496 83.7017 13.1782 79.9721 13.1782C75.6657 13.1782 72.0437 14.5389 69.2047 17.2246C66.1863 20.071 64.6562 23.8703 64.6562 28.5181C64.6562 33.1659 66.1445 36.9919 69.0762 39.7342C71.8554 42.3156 75.4476 43.6257 79.7539 43.6257C84.0603 43.6257 87.4911 42.1697 90.2733 39.2965L90.5393 39.0225L86.6184 34.9017V34.9047Z" fill="white"/>
<path d="M107.39 13.72H99.2819L88.7207 43.0867H96.0873L98.3406 35.7502H98.4481C100.161 30.3521 101.753 24.945 103.188 19.6154L105.504 27.4729C106.472 30.754 107.318 33.5261 108.032 35.7472H108.158L110.411 43.0837H117.996L107.39 13.717V13.72Z" fill="white"/>
<path d="M103.4 43.0869L101.867 40.4846C101.051 39.1001 100.361 37.9835 99.8231 37.1766L98.6875 35.3127H108.035L106.903 37.1707C105.63 39.1477 104.455 41.1337 103.403 43.0869H103.4Z" fill="#932A23"/>
<path d="M143.106 22.7687C143.106 16.7661 138.916 13.7231 130.653 13.7231H119.066V43.0898H126.284V32.2787H130.124L136.713 43.0898H144.824L137.197 31.1949C141.118 29.6764 143.106 26.8448 143.106 22.7687ZM126.284 19.0349H130.046C132.102 19.0349 133.623 19.3148 134.565 19.8656C135.545 20.4641 136.02 21.4139 136.02 22.7687C136.02 25.5913 134.065 26.9639 130.046 26.9639H126.284V19.0349Z" fill="white"/>
<path d="M166.17 27.357C167.183 26.8687 168.035 26.1183 168.701 25.1179C169.523 23.924 169.941 22.5871 169.941 21.146C169.941 16.2183 165.898 13.7202 157.922 13.7202H146.9V43.0869H158.747C162.536 43.0869 165.596 42.3782 167.847 40.9788C170.33 39.4157 171.588 37.1588 171.588 34.2706C171.588 30.7096 169.765 28.3872 166.167 27.354L166.17 27.357ZM157.447 25.3442H154.118V18.8831H157.533C161.143 18.8831 162.901 19.9014 162.901 21.9975C162.901 24.2485 161.116 25.3442 157.45 25.3442H157.447ZM154.118 30.388H158.182C162.464 30.388 164.547 31.5462 164.547 33.9282C164.547 36.596 162.464 37.8912 158.182 37.8912H154.118V30.388Z" fill="white"/>
<path d="M187.837 13.1812C183.441 13.1812 179.861 14.518 177.192 17.159C174.467 19.8745 173.086 23.6201 173.086 28.2888C173.086 32.9574 174.467 36.7239 177.186 39.4929C179.855 42.2381 183.435 43.6286 187.837 43.6286C192.239 43.6286 195.819 42.2381 198.485 39.4959C201.207 36.7299 202.588 32.9574 202.588 28.2917C202.588 23.6261 201.207 19.9042 198.482 17.159C195.813 14.521 192.233 13.1841 187.837 13.1841V13.1812ZM193.201 35.3394C191.853 37.0544 190.096 37.8881 187.837 37.8881C185.578 37.8881 183.82 37.0544 182.473 35.3394C181.119 33.6184 180.435 31.2454 180.435 28.2888C180.435 25.3322 181.119 22.9889 182.47 21.3185C183.791 19.678 185.545 18.88 187.837 18.88C190.129 18.88 191.886 19.678 193.207 21.3185C194.558 22.9889 195.242 25.3351 195.242 28.2888C195.242 31.2424 194.558 33.6184 193.204 35.3394H193.201Z" fill="white"/>
<path d="M224.809 25.508C224.809 26.9312 224.911 28.6581 225.114 30.6351C225.174 31.3855 225.261 32.243 225.377 33.1958L225.461 33.9491L222.954 29.1226L213.516 13.7202H206.344V43.0869H213.214V31.2217C213.214 29.8283 213.128 28.1132 212.951 26.1213L212.599 22.7747L215.157 27.6041L224.552 43.0839H231.683V13.7202H224.812V25.508H224.809Z" fill="white"/>
<path d="M252.42 25.3859L262.593 13.7202H254.464L244.297 25.5854V13.7202H237.08V43.0869H244.297V34.8095L248.054 30.5309" fill="white"/>
<path d="M260.647 37.7542H252.719L256.164 43.0868H264.194L260.647 37.7542Z" fill="#932A23"/>
<path d="M272.305 13.7202H265.088V43.0869H272.305V13.7202Z" fill="white"/>
<path d="M296.13 13.7202V25.508C296.13 26.9312 296.234 28.6581 296.435 30.6351C296.494 31.3855 296.581 32.243 296.698 33.1958L296.781 33.9491L294.274 29.1226L284.836 13.7202H277.664V43.0869H284.535V31.2217C284.535 29.8283 284.448 28.1132 284.272 26.1213L283.919 22.7747L286.477 27.6041L295.873 43.0839H303.003V13.7202H296.133H296.13Z" fill="white"/>
</g>
<defs>
<clipPath id="clip0_2205_189">
<rect width="303" height="56" fill="white"/>
</clipPath>
</defs>
</svg>
