<svg width="303" height="56" viewBox="0 0 303 56" fill="none" xmlns="http://www.w3.org/2000/svg">
<g clip-path="url(#clip0_2279_323)">
<path d="M32.4547 13.4283C32.6997 13.5712 32.9418 13.7231 33.3213 13.9553C32.6788 14.3305 32.1558 14.6342 31.6299 14.9379C30.5062 15.584 29.3796 16.2182 28.2649 16.8792C27.9272 17.0787 27.6582 17.0578 27.3235 16.8643C24.0123 14.9438 20.6831 13.0472 17.3779 11.1148C16.8788 10.823 16.5083 10.7962 16.0032 11.1029C14.3715 12.0885 2.21445 19.0557 0.6216 19.9698C0.134481 20.2467 0.0119538 20.1842 0.0119538 19.6423C0 17.9332 0.0119538 16.2271 0 14.524C0 14.0982 0.167354 13.8303 0.537923 13.6189C5.68704 10.6682 10.8362 7.71457 15.9733 4.73712C16.4993 4.43044 16.8878 4.45426 17.3988 4.75796" fill="#932A23"/>
<path d="M31.8867 51.3641C32.1018 51.4832 32.4874 51.4594 32.7234 51.3522C33.2763 51.0991 33.7873 50.7507 34.3163 50.447C36.6055 49.131 38.8916 47.812 41.1808 46.4959V40.145L32.8639 44.9536C32.4485 45.2008 32.1287 45.1918 31.7283 44.9566C29.7589 43.8043 27.7805 42.6729 25.8022 41.5355C24.3976 40.7286 22.987 39.9366 21.5914 39.1208C21.2717 38.9332 21.0147 38.9302 20.6949 39.1178C19.4397 39.8562 18.1726 40.5738 16.9115 41.3033C16.5439 41.5147 16.1823 41.741 15.7012 42.0298C15.9671 42.2114 16.1046 42.3216 16.254 42.4079" fill="#808080"/>
<path d="M7.82617 28.0089C7.82617 27.8541 7.87996 27.6993 7.9218 27.4908C8.09513 27.5593 8.22961 27.5921 8.34616 27.6606C9.83143 28.5062 11.3047 29.3696 12.799 30.1974C13.2323 30.4385 13.3907 30.7392 13.3877 31.2305C13.3728 35.0357 13.3877 38.8379 13.3698 42.6431C13.3698 43.1493 13.5013 43.453 13.9704 43.7091C15.641 44.6261 27.8728 51.6886 29.5852 52.6801C29.6748 52.7307 29.7495 52.8111 29.9258 52.96C29.4895 53.225 29.1309 53.4543 28.7633 53.6657C27.4992 54.3922 26.2261 55.1008 24.974 55.8422C24.6153 56.0536 24.3374 56.0446 23.9848 55.8392C19.5768 53.2905 15.1628 50.7537 10.7519 48.2139C9.95694 47.7554 9.165 47.2939 8.35812 46.8532C8.00249 46.6597 7.84709 46.4096 7.85008 45.9957" fill="#808080"/>
<path d="M5.57736 44.6053C5.57736 44.7422 5.53552 44.8792 5.49667 45.1233C5.27254 45.0281 5.12013 44.9804 4.98565 44.903C3.50337 44.0515 2.03006 43.188 0.541806 42.3483C0.201122 42.1548 0.057676 41.9166 0.0606644 41.5325C0.0726183 39.6508 0.0666413 37.766 0.0666413 35.8843C0.0666413 31.7218 0.0666413 27.5623 0.0546875 23.3998C0.0546875 23.0425 0.177214 22.8222 0.467095 22.6584C2.54109 21.4704 14.74 14.4615 15.9563 13.7618C16.1505 13.6486 16.3627 13.5653 16.6436 13.4283C16.6765 13.7022 16.7154 13.8868 16.7154 14.0744C16.7213 15.7239 16.7094 17.3764 16.7303 19.0259C16.7363 19.4993 16.557 19.7763 16.1475 20.0085C12.8035 21.917 9.4773 23.8494 6.13023 25.752C5.70288 25.9932 5.57138 26.279 5.57437 26.7405" fill="#932A23"/>
<path d="M34.9136 12.2225C35.4336 12.5083 35.6428 12.8447 35.6369 13.4521C35.61 17.2365 35.6309 21.0238 35.6129 24.8082C35.6129 25.2816 35.7713 25.5615 36.1867 25.7907C37.6182 26.5827 39.0317 27.4045 40.4543 28.2203C41.0071 28.5359 41.1326 28.4704 41.1356 27.8184L41.1446 10.0757C41.1446 9.62909 40.9802 9.35517 40.5857 9.13186C35.3888 6.1544 30.1979 3.17099 25.0129 0.17269C24.6363 -0.0446639 24.3465 -0.0625286 23.9729 0.157803C22.7506 0.881325 21.5104 1.57209 20.2792 2.28371C19.8966 2.50404 19.5261 2.74224 19.0449 3.037C19.293 3.21565 19.4125 3.31986 19.55 3.40025L34.9136 12.2254V12.2225Z" fill="#808080"/>
<path d="M86.6184 34.9047L86.3286 35.1816C84.4488 36.977 82.3091 37.8881 79.9721 37.8881C77.6351 37.8881 75.6448 37.0634 74.2074 35.3632C72.746 33.6721 72.0049 31.302 72.0049 28.3275C72.0049 25.353 72.7878 23.0932 74.3329 21.3722C75.8271 19.6959 77.7158 18.8801 80.1036 18.8801C82.076 18.8801 83.9707 19.6542 85.7369 21.1757L86.0297 21.4288L89.9476 17.2246L89.6547 16.9536C86.9591 14.4496 83.7017 13.1782 79.9721 13.1782C75.6657 13.1782 72.0437 14.5389 69.2047 17.2246C66.1863 20.071 64.6562 23.8703 64.6562 28.5181C64.6562 33.1659 66.1445 36.9919 69.0762 39.7342C71.8554 42.3156 75.4476 43.6257 79.7539 43.6257C84.0603 43.6257 87.4911 42.1697 90.2733 39.2965L90.5393 39.0225L86.6184 34.9017V34.9047Z" fill="#808080"/>
<path d="M107.39 13.7201H99.2819L88.7207 43.0868H96.0873L98.3406 35.7503H98.4481C100.161 30.3522 101.753 24.9451 103.188 19.6155L105.504 27.473C106.472 30.7541 107.318 33.5261 108.032 35.7473H108.158L110.411 43.0838H117.996L107.39 13.7171V13.7201Z" fill="#808080"/>
<path d="M103.4 43.0868L101.867 40.4845C101.051 39.0999 100.361 37.9834 99.8231 37.1765L98.6875 35.3126H108.035L106.903 37.1706C105.63 39.1476 104.455 41.1336 103.403 43.0868H103.4Z" fill="#932A23"/>
<path d="M143.106 22.7686C143.106 16.766 138.916 13.7231 130.653 13.7231H119.066V43.0897H126.284V32.2786H130.124L136.713 43.0897H144.824L137.197 31.1948C141.118 29.6763 143.106 26.8447 143.106 22.7686ZM126.284 19.0349H130.046C132.102 19.0349 133.623 19.3147 134.565 19.8656C135.545 20.464 136.02 21.4139 136.02 22.7686C136.02 25.5912 134.065 26.9638 130.046 26.9638H126.284V19.0349Z" fill="#808080"/>
<path d="M166.17 27.3569C167.183 26.8686 168.035 26.1183 168.701 25.1178C169.523 23.9239 169.941 22.587 169.941 21.1459C169.941 16.2182 165.898 13.7201 157.922 13.7201H146.9V43.0868H158.747C162.536 43.0868 165.596 42.3781 167.847 40.9787C170.33 39.4156 171.588 37.1587 171.588 34.2705C171.588 30.7095 169.765 28.3871 166.167 27.3539L166.17 27.3569ZM157.447 25.3441H154.118V18.883H157.533C161.143 18.883 162.901 19.9013 162.901 21.9975C162.901 24.2484 161.116 25.3441 157.45 25.3441H157.447ZM154.118 30.3879H158.182C162.464 30.3879 164.547 31.5462 164.547 33.9281C164.547 36.5959 162.464 37.8911 158.182 37.8911H154.118V30.3879Z" fill="#808080"/>
<path d="M187.837 13.1812C183.441 13.1812 179.861 14.5181 177.192 17.1591C174.467 19.8745 173.086 23.6202 173.086 28.2888C173.086 32.9575 174.467 36.724 177.186 39.493C179.855 42.2382 183.435 43.6287 187.837 43.6287C192.239 43.6287 195.819 42.2382 198.485 39.496C201.207 36.7299 202.588 32.9575 202.588 28.2918C202.588 23.6261 201.207 19.9043 198.482 17.1591C195.813 14.5211 192.233 13.1842 187.837 13.1842V13.1812ZM193.201 35.3394C191.853 37.0545 190.096 37.8881 187.837 37.8881C185.578 37.8881 183.82 37.0545 182.473 35.3394C181.119 33.6185 180.435 31.2454 180.435 28.2888C180.435 25.3322 181.119 22.989 182.47 21.3186C183.791 19.678 185.545 18.8801 187.837 18.8801C190.129 18.8801 191.886 19.678 193.207 21.3186C194.558 22.989 195.242 25.3352 195.242 28.2888C195.242 31.2425 194.558 33.6185 193.204 35.3394H193.201Z" fill="#808080"/>
<path d="M224.809 25.5079C224.809 26.9311 224.911 28.658 225.114 30.6351C225.174 31.3854 225.261 32.2429 225.377 33.1957L225.461 33.949L222.954 29.1225L213.516 13.7201H206.344V43.0868H213.214V31.2216C213.214 29.8282 213.128 28.1131 212.951 26.1212L212.599 22.7746L215.157 27.604L224.552 43.0838H231.683V13.7201H224.812V25.5079H224.809Z" fill="#808080"/>
<path d="M252.42 25.3858L262.593 13.7201H254.464L244.297 25.5853V13.7201H237.08V43.0868H244.297V34.8094L248.054 30.5308" fill="#808080"/>
<path d="M260.647 37.7542H252.719L256.164 43.0868H264.194L260.647 37.7542Z" fill="#932A23"/>
<path d="M272.305 13.7201H265.088V43.0868H272.305V13.7201Z" fill="#808080"/>
<path d="M296.13 13.7201V25.5079C296.13 26.9311 296.234 28.658 296.435 30.6351C296.494 31.3854 296.581 32.2429 296.698 33.1957L296.781 33.949L294.274 29.1225L284.836 13.7201H277.664V43.0868H284.535V31.2216C284.535 29.8282 284.448 28.1131 284.272 26.1212L283.919 22.7746L286.477 27.604L295.873 43.0838H303.003V13.7201H296.133H296.13Z" fill="#808080"/>
</g>
<defs>
<clipPath id="clip0_2279_323">
<rect width="303" height="56" fill="white"/>
</clipPath>
</defs>
</svg>
